<svg width="101" height="101" viewBox="0 0 101 101" fill="none" xmlns="http://www.w3.org/2000/svg">
<g filter="url(#filter0_d)">
<path d="M50.5667 0.899902L54.27 5.55474L58.7449 1.63595L61.5574 6.87723L66.6601 3.82043L68.4917 9.47969L74.0582 7.38314L74.8498 13.2785L80.7012 12.2096L80.4274 18.1515L86.3756 18.1446L85.0453 23.9421L90.8992 24.9974L88.555 30.4643L94.1264 32.5478L90.8437 37.5083L95.9535 40.5532L91.8379 44.8477L96.3219 48.7561L91.5056 52.2468L95.2197 56.893L89.8575 59.4676L92.6823 64.7023L86.9466 66.2781L88.7913 71.9331L82.8664 72.4594L83.6717 78.3528L77.748 77.8127L77.4881 83.7553L71.756 82.1662L70.4392 87.9668L65.083 85.3797L62.7516 90.852L57.9434 87.3501L54.6723 92.3182L50.5667 88.014L46.4611 92.3182L43.19 87.3501L38.3819 90.852L36.0504 85.3797L30.6943 87.9668L29.3774 82.1662L23.6454 83.7553L23.3854 77.8127L17.4617 78.3528L18.2671 72.4594L12.3421 71.9331L14.1868 66.2781L8.45111 64.7023L11.2759 59.4676L5.91372 56.893L9.6278 52.2468L4.8115 48.7561L9.29551 44.8477L5.17989 40.5532L10.2897 37.5083L7.00706 32.5478L12.5784 30.4643L10.2343 24.9974L16.0882 23.9421L14.7578 18.1446L20.706 18.1515L20.4322 12.2096L26.2837 13.2785L27.0752 7.38314L32.6418 9.47969L34.4733 3.82043L39.576 6.87723L42.3886 1.63595L46.8635 5.55474L50.5667 0.899902Z" fill="#F42362"/>
</g>
<defs>
<filter id="filter0_d" x="0.811523" y="0.899902" width="99.5104" height="99.4183" filterUnits="userSpaceOnUse" color-interpolation-filters="sRGB">
<feFlood flood-opacity="0" result="BackgroundImageFix"/>
<feColorMatrix in="SourceAlpha" type="matrix" values="0 0 0 0 0 0 0 0 0 0 0 0 0 0 0 0 0 0 127 0"/>
<feOffset dy="4"/>
<feGaussianBlur stdDeviation="2"/>
<feColorMatrix type="matrix" values="0 0 0 0 0 0 0 0 0 0 0 0 0 0 0 0 0 0 0.25 0"/>
<feBlend mode="normal" in2="BackgroundImageFix" result="effect1_dropShadow"/>
<feBlend mode="normal" in="SourceGraphic" in2="effect1_dropShadow" result="shape"/>
</filter>
</defs>
</svg>
